<?xml version="1.0" standalone="no"?>
<!DOCTYPE svg PUBLIC "-//W3C//DTD SVG 20010904//EN"
 "http://www.w3.org/TR/2001/REC-SVG-20010904/DTD/svg10.dtd">
<svg version="1.0" xmlns="http://www.w3.org/2000/svg"
 width="1920.000000pt" height="1260.000000pt" viewBox="0 0 1920.000000 1260.000000"
 preserveAspectRatio="xMidYMid meet">

<g transform="translate(0.000000,1260.000000) scale(0.100000,-0.100000)"
fill="#000000" stroke="none">
<path d="M0 8599 l0 -4001 1268 6 c697 3 1407 9 1578 12 l312 6 98 -32 c169
-54 216 -61 439 -67 243 -6 399 8 724 62 l206 35 240 -10 c146 -7 621 -10
1215 -8 968 4 976 4 1090 27 158 31 338 32 475 3 183 -39 301 -47 705 -47
l385 0 190 32 c425 72 578 68 748 -21 l68 -36 391 0 390 0 -5 23 c-11 43 -116
613 -131 707 -27 168 -38 437 -30 755 l6 300 42 32 c47 36 89 56 173 80 48 13
134 17 483 23 320 5 445 11 505 23 191 37 325 40 1335 33 1514 -11 2463 -24
2600 -35 281 -25 455 -58 547 -105 93 -47 111 -105 96 -322 -12 -165 -4 -247
25 -277 19 -18 24 -16 255 72 257 99 334 117 452 105 390 -37 720 -361 753
-739 14 -153 2 -212 -77 -398 -39 -91 -71 -172 -71 -179 0 -12 80 -16 438 -27
240 -7 552 -16 692 -21 140 -5 330 -9 423 -10 l167 0 0 4000 0 4000 -9600 0
-9600 0 0 -4001z"/>
<path d="M16557 5623 c-118 -70 -197 -138 -234 -200 -15 -26 -46 -110 -70
-187 -33 -112 -48 -146 -71 -166 -15 -14 -52 -45 -81 -70 l-53 -45 -43 -180
c-31 -127 -40 -182 -32 -187 24 -15 147 -20 306 -14 470 18 544 18 620 2 l73
-15 47 26 c25 15 87 67 136 117 73 73 99 108 133 177 70 142 88 278 54 410
-60 228 -276 371 -582 385 l-105 5 -98 -58z"/>
</g>
</svg>
